<?xml version="1.0" encoding="UTF-8" standalone="no"?>
<svg
   xmlns:dc="http://purl.org/dc/elements/1.1/"
   xmlns:cc="http://creativecommons.org/ns#"
   xmlns:rdf="http://www.w3.org/1999/02/22-rdf-syntax-ns#"
   xmlns:svg="http://www.w3.org/2000/svg"
   xmlns="http://www.w3.org/2000/svg"
   xmlns:sodipodi="http://sodipodi.sourceforge.net/DTD/sodipodi-0.dtd"
   xmlns:inkscape="http://www.inkscape.org/namespaces/inkscape"
   width="256"
   height="256"
   viewBox="0 0 67.733332 67.733335"
   version="1.1"
   id="svg8"
   inkscape:version="1.0.2 (e86c870879, 2021-01-15)"
   sodipodi:docname="Bdwindle.svg">
  <defs
     id="defs2" />
  <sodipodi:namedview
     id="base"
     pagecolor="#ffffff"
     bordercolor="#666666"
     borderopacity="1.0"
     inkscape:pageopacity="0.0"
     inkscape:pageshadow="2"
     inkscape:zoom="1.3562087"
     inkscape:cx="91.178017"
     inkscape:cy="118.00976"
     inkscape:document-units="mm"
     inkscape:current-layer="layer1"
     inkscape:document-rotation="0"
     showgrid="true"
     units="px"
     inkscape:window-width="1310"
     inkscape:window-height="712"
     inkscape:window-x="16"
     inkscape:window-y="36"
     inkscape:window-maximized="0"
     inkscape:pagecheckerboard="true">
    <inkscape:grid
       type="xygrid"
       id="grid833" />
  </sodipodi:namedview>
  <metadata
     id="metadata5">
    <rdf:RDF>
      <cc:Work
         rdf:about="">
        <dc:format>image/svg+xml</dc:format>
        <dc:type
           rdf:resource="http://purl.org/dc/dcmitype/StillImage" />
        <dc:title></dc:title>
      </cc:Work>
    </rdf:RDF>
  </metadata>
  <g
     inkscape:label="Layer 1"
     inkscape:groupmode="layer"
     id="layer1">
    <path
       id="path1528"
       style="opacity:1;fill:#000000;fill-opacity:1;stroke:#000000;stroke-width:0.544102;stroke-linejoin:round;stroke-opacity:0.98431373"
       d="m 10.318233,7.5478595 c -1.5347875,0 -2.7703734,1.2355848 -2.7703734,2.7703735 v 47.096866 c 0,1.534787 1.2355859,2.770375 2.7703734,2.770375 h 19.392615 c 1.53479,0 2.770373,-1.235588 2.770373,-2.770375 V 10.318233 c 0,-1.5347887 -1.235583,-2.7703735 -2.770373,-2.7703735 z m 27.704251,0 c -1.534787,0 -2.770372,1.2355848 -2.770372,2.7703735 v 27.704252 c 0,1.534787 1.235585,2.770372 2.770372,2.770372 h 19.392614 c 1.534787,0 2.770376,-1.235585 2.770376,-2.770372 V 10.318233 c 0,-1.5347887 -1.235589,-2.7703735 -2.770376,-2.7703735 z m 0,36.0153735 c -1.534787,0 -2.770372,1.235583 -2.770372,2.770372 v 11.081494 c 0,1.534787 1.235585,2.770375 2.770372,2.770375 h 8.311121 c 1.534787,0 2.770373,-1.235588 2.770373,-2.770375 V 46.333605 c 0,-1.534789 -1.235586,-2.770372 -2.770373,-2.770372 z m 15.236796,0 c -0.767395,0 -1.384927,0.617532 -1.384927,1.384927 0,0.767394 0.617532,1.385445 1.384927,1.385445 h 5.540748 c 0.767395,0 1.385446,-0.618051 1.385446,-1.385445 0,-0.767395 -0.618051,-1.384927 -1.385446,-1.384927 z m 1.385446,5.540745 c -1.534787,0 -2.770373,1.235586 -2.770373,2.770375 v 5.540746 c 0,1.534787 1.235586,2.770375 2.770373,2.770375 h 2.770372 c 1.53479,0 2.770376,-1.235588 2.770376,-2.770375 v -5.540746 c 0,-1.534789 -1.235586,-2.770375 -2.770376,-2.770375 z" />
  </g>
</svg>
