<?xml version="1.0" encoding="UTF-8" standalone="no"?>
<svg
   xmlns:dc="http://purl.org/dc/elements/1.1/"
   xmlns:cc="http://creativecommons.org/ns#"
   xmlns:rdf="http://www.w3.org/1999/02/22-rdf-syntax-ns#"
   xmlns:svg="http://www.w3.org/2000/svg"
   xmlns="http://www.w3.org/2000/svg"
   xmlns:sodipodi="http://sodipodi.sourceforge.net/DTD/sodipodi-0.dtd"
   xmlns:inkscape="http://www.inkscape.org/namespaces/inkscape"
   width="256"
   height="256"
   viewBox="0 0 67.733332 67.733335"
   version="1.1"
   id="svg8"
   inkscape:version="1.0.2 (e86c870879, 2021-01-15)"
   sodipodi:docname="Btiletop.svg">
  <defs
     id="defs2" />
  <sodipodi:namedview
     id="base"
     pagecolor="#ffffff"
     bordercolor="#666666"
     borderopacity="1.0"
     inkscape:pageopacity="0.0"
     inkscape:pageshadow="2"
     inkscape:zoom="1.3562087"
     inkscape:cx="91.178017"
     inkscape:cy="114.28624"
     inkscape:document-units="mm"
     inkscape:current-layer="layer1"
     inkscape:document-rotation="0"
     showgrid="false"
     units="px"
     inkscape:window-width="1307"
     inkscape:window-height="709"
     inkscape:window-x="16"
     inkscape:window-y="39"
     inkscape:window-maximized="0"
     inkscape:pagecheckerboard="true">
    <inkscape:grid
       type="xygrid"
       id="grid833" />
  </sodipodi:namedview>
  <metadata
     id="metadata5">
    <rdf:RDF>
      <cc:Work
         rdf:about="">
        <dc:format>image/svg+xml</dc:format>
        <dc:type
           rdf:resource="http://purl.org/dc/dcmitype/StillImage" />
        <dc:title></dc:title>
      </cc:Work>
    </rdf:RDF>
  </metadata>
  <g
     inkscape:label="Layer 1"
     inkscape:groupmode="layer"
     id="layer1">
    <path
       id="rect835"
       style="opacity:1;fill:#000000;fill-opacity:1;stroke:#000000;stroke-width:0.519642;stroke-linejoin:round;stroke-opacity:0.984314"
       d="m 7.4083336,57.679167 c 0,1.465791 1.1800417,2.645833 2.6458334,2.645833 h 47.625 c 1.465791,0 2.645833,-1.180042 2.645833,-2.645833 V 47.095834 c 0,-1.465792 -1.180042,-2.645833 -2.645833,-2.645833 h -47.625 c -1.4657917,0 -2.6458334,1.180041 -2.6458334,2.645833 z m 0,-18.520833 c 0,1.465792 1.1800417,2.645833 2.6458334,2.645833 H 20.6375 c 1.465792,0 2.645834,-1.180041 2.645834,-2.645833 V 28.575001 c 0,-1.465792 -1.180042,-2.645834 -2.645834,-2.645834 H 10.054167 c -1.4657917,0 -2.6458334,1.180042 -2.6458334,2.645834 z m 0,-18.520833 c 0,1.465791 1.1800417,2.645833 2.6458334,2.645833 H 20.6375 c 1.465792,0 2.645834,-1.180042 2.645834,-2.645833 V 10.054168 c 0,-1.4657924 -1.180042,-2.6458344 -2.645834,-2.6458344 H 10.054167 c -1.4657917,0 -2.6458334,1.180042 -2.6458334,2.6458344 z M 25.929167,39.158334 c 0,1.465792 1.180042,2.645833 2.645833,2.645833 h 10.583334 c 1.465791,0 2.645833,-1.180041 2.645833,-2.645833 V 28.575001 c 0,-1.465792 -1.180042,-2.645834 -2.645833,-2.645834 H 28.575 c -1.465791,0 -2.645833,1.180042 -2.645833,2.645834 z m 0,-18.520833 c 0,1.465791 1.180042,2.645833 2.645833,2.645833 h 10.583334 c 1.465791,0 2.645833,-1.180042 2.645833,-2.645833 V 10.054168 c 0,-1.4657924 -1.180042,-2.6458344 -2.645833,-2.6458344 H 28.575 c -1.465791,0 -2.645833,1.180042 -2.645833,2.6458344 z M 44.45,39.158334 c 0,1.465792 1.180042,2.645833 2.645833,2.645833 h 10.583334 c 1.465791,0 2.645833,-1.180041 2.645833,-2.645833 V 28.575001 c 0,-1.465792 -1.180042,-2.645834 -2.645833,-2.645834 H 47.095833 c -1.465791,0 -2.645833,1.180042 -2.645833,2.645834 z m 0,-18.520833 c 0,1.465791 1.180042,2.645833 2.645833,2.645833 h 10.583334 c 1.465791,0 2.645833,-1.180042 2.645833,-2.645833 V 10.054168 c 0,-1.4657924 -1.180042,-2.6458344 -2.645833,-2.6458344 H 47.095833 C 45.630042,7.4083337 44.45,8.5883757 44.45,10.054168 Z" />
  </g>
</svg>
