<?xml version="1.0" encoding="UTF-8" standalone="no"?>
<svg
   xmlns:dc="http://purl.org/dc/elements/1.1/"
   xmlns:cc="http://creativecommons.org/ns#"
   xmlns:rdf="http://www.w3.org/1999/02/22-rdf-syntax-ns#"
   xmlns:svg="http://www.w3.org/2000/svg"
   xmlns="http://www.w3.org/2000/svg"
   xmlns:sodipodi="http://sodipodi.sourceforge.net/DTD/sodipodi-0.dtd"
   xmlns:inkscape="http://www.inkscape.org/namespaces/inkscape"
   width="256"
   height="256"
   viewBox="0 0 67.733332 67.733335"
   version="1.1"
   id="svg8"
   inkscape:version="1.0.2 (e86c870879, 2021-01-15)"
   sodipodi:docname="Bfloat.svg">
  <defs
     id="defs2" />
  <sodipodi:namedview
     id="base"
     pagecolor="#ffffff"
     bordercolor="#666666"
     borderopacity="1.0"
     inkscape:pageopacity="0.0"
     inkscape:pageshadow="2"
     inkscape:zoom="1.3562087"
     inkscape:cx="91.178017"
     inkscape:cy="114.28624"
     inkscape:document-units="mm"
     inkscape:current-layer="layer1"
     inkscape:document-rotation="0"
     showgrid="true"
     units="px"
     inkscape:window-width="1307"
     inkscape:window-height="709"
     inkscape:window-x="16"
     inkscape:window-y="39"
     inkscape:window-maximized="0"
     inkscape:pagecheckerboard="true">
    <inkscape:grid
       type="xygrid"
       id="grid833" />
  </sodipodi:namedview>
  <metadata
     id="metadata5">
    <rdf:RDF>
      <cc:Work
         rdf:about="">
        <dc:format>image/svg+xml</dc:format>
        <dc:type
           rdf:resource="http://purl.org/dc/dcmitype/StillImage" />
        <dc:title></dc:title>
      </cc:Work>
    </rdf:RDF>
  </metadata>
  <g
     inkscape:label="Layer 1"
     inkscape:groupmode="layer"
     id="layer1">
    <path
       id="path1219"
       style="opacity:1;fill:#000000;fill-opacity:1;stroke:#000000;stroke-width:0.492763;stroke-linejoin:round;stroke-opacity:1"
       d="m 10.031398,10.031398 c -1.389972,0 -2.5089751,1.119004 -2.5089751,2.508976 V 37.63013 c 0,1.389972 1.1190031,2.508975 2.5089751,2.508975 h 37.634634 c 1.389972,0 2.508975,-1.119003 2.508975,-2.508975 V 12.540374 c 0,-1.389972 -1.119003,-2.508976 -2.508975,-2.508976 z m 42.652585,17.56283 v 12.544877 c 0,1.389973 -1.119003,2.508976 -2.508976,2.508976 H 20.0673 v 12.544878 c 0,1.389972 1.119004,2.508976 2.508976,2.508976 h 35.125658 c 1.389973,0 2.508976,-1.119004 2.508976,-2.508976 V 30.103203 c 0,-1.389972 -1.119003,-2.508975 -2.508976,-2.508975 z" />
  </g>
</svg>
