<?xml version="1.0" encoding="UTF-8" standalone="no"?>
<svg
   xmlns:dc="http://purl.org/dc/elements/1.1/"
   xmlns:cc="http://creativecommons.org/ns#"
   xmlns:rdf="http://www.w3.org/1999/02/22-rdf-syntax-ns#"
   xmlns:svg="http://www.w3.org/2000/svg"
   xmlns="http://www.w3.org/2000/svg"
   xmlns:sodipodi="http://sodipodi.sourceforge.net/DTD/sodipodi-0.dtd"
   xmlns:inkscape="http://www.inkscape.org/namespaces/inkscape"
   width="256"
   height="256"
   viewBox="0 0 67.733332 67.733335"
   version="1.1"
   id="svg8"
   inkscape:version="1.0.2 (e86c870879, 2021-01-15)"
   sodipodi:docname="cornersw.svg">
  <defs
     id="defs2" />
  <sodipodi:namedview
     id="base"
     pagecolor="#ffffff"
     bordercolor="#666666"
     borderopacity="1.0"
     inkscape:pageopacity="0.0"
     inkscape:pageshadow="2"
     inkscape:zoom="1.3562087"
     inkscape:cx="91.178017"
     inkscape:cy="114.28624"
     inkscape:document-units="mm"
     inkscape:current-layer="layer1"
     inkscape:document-rotation="0"
     showgrid="true"
     units="px"
     inkscape:window-width="1310"
     inkscape:window-height="712"
     inkscape:window-x="16"
     inkscape:window-y="36"
     inkscape:window-maximized="0"
     inkscape:pagecheckerboard="true">
    <inkscape:grid
       type="xygrid"
       id="grid833" />
  </sodipodi:namedview>
  <metadata
     id="metadata5">
    <rdf:RDF>
      <cc:Work
         rdf:about="">
        <dc:format>image/svg+xml</dc:format>
        <dc:type
           rdf:resource="http://purl.org/dc/dcmitype/StillImage" />
        <dc:title></dc:title>
      </cc:Work>
    </rdf:RDF>
  </metadata>
  <g
     inkscape:label="Layer 1"
     inkscape:groupmode="layer"
     id="layer1">
    <path
       id="rect905"
       style="opacity:1;fill:	#CFD5AE;fill-opacity:1;stroke:	#CFD5AE;stroke-width:0.519642;stroke-linejoin:round;stroke-opacity:0.98431373"
       d="m 57.679167,60.325 c 1.465791,0 2.645833,-1.180042 2.645833,-2.645833 V 47.095834 C 60.325,45.630042 59.144958,44.45 57.679167,44.45 H 47.095834 c -1.465792,0 -2.645833,1.180042 -2.645833,2.645834 v 10.583333 c 0,1.465791 1.180041,2.645833 2.645833,2.645833 z m -18.520833,0 c 1.465792,0 2.645833,-1.180042 2.645833,-2.645833 V 28.575 c 0,-1.465791 -1.180041,-2.645833 -2.645833,-2.645833 H 10.054168 c -1.4657923,0 -2.6458343,1.180042 -2.6458343,2.645833 v 29.104167 c 0,1.465791 1.180042,2.645833 2.6458343,2.645833 z M 57.679167,41.804167 c 1.465791,0 2.645833,-1.180042 2.645833,-2.645833 V 28.575 c 0,-1.465791 -1.180042,-2.645833 -2.645833,-2.645833 H 47.095834 c -1.465792,0 -2.645833,1.180042 -2.645833,2.645833 v 10.583334 c 0,1.465791 1.180041,2.645833 2.645833,2.645833 z m 0,-18.520833 c 1.465791,0 2.645833,-1.180042 2.645833,-2.645833 V 10.054167 c 0,-1.4657914 -1.180042,-2.6458334 -2.645833,-2.6458334 H 47.095834 c -1.465792,0 -2.645833,1.180042 -2.645833,2.6458334 v 10.583334 c 0,1.465791 1.180041,2.645833 2.645833,2.645833 z m -18.520833,0 c 1.465792,0 2.645833,-1.180042 2.645833,-2.645833 V 10.054167 c 0,-1.4657914 -1.180041,-2.6458334 -2.645833,-2.6458334 H 28.575001 c -1.465792,0 -2.645834,1.180042 -2.645834,2.6458334 v 10.583334 c 0,1.465791 1.180042,2.645833 2.645834,2.645833 z m -18.520833,0 c 1.465791,0 2.645833,-1.180042 2.645833,-2.645833 V 10.054167 c 0,-1.4657914 -1.180042,-2.6458334 -2.645833,-2.6458334 H 10.054168 c -1.4657923,0 -2.6458343,1.180042 -2.6458343,2.6458334 v 10.583334 c 0,1.465791 1.180042,2.645833 2.6458343,2.645833 z" />
  </g>
</svg>
