<?xml version="1.0" encoding="UTF-8" standalone="no"?>
<svg
   xmlns:dc="http://purl.org/dc/elements/1.1/"
   xmlns:cc="http://creativecommons.org/ns#"
   xmlns:rdf="http://www.w3.org/1999/02/22-rdf-syntax-ns#"
   xmlns:svg="http://www.w3.org/2000/svg"
   xmlns="http://www.w3.org/2000/svg"
   xmlns:sodipodi="http://sodipodi.sourceforge.net/DTD/sodipodi-0.dtd"
   xmlns:inkscape="http://www.inkscape.org/namespaces/inkscape"
   width="256"
   height="256"
   viewBox="0 0 67.733332 67.733335"
   version="1.1"
   id="svg8"
   inkscape:version="1.0.2 (e86c870879, 2021-01-15)"
   sodipodi:docname="fair.svg">
  <defs
     id="defs2" />
  <sodipodi:namedview
     id="base"
     pagecolor="#ffffff"
     bordercolor="#666666"
     borderopacity="1.0"
     inkscape:pageopacity="0.0"
     inkscape:pageshadow="2"
     inkscape:zoom="1.3562087"
     inkscape:cx="91.178017"
     inkscape:cy="114.28624"
     inkscape:document-units="mm"
     inkscape:current-layer="layer1"
     inkscape:document-rotation="0"
     showgrid="true"
     units="px"
     inkscape:window-width="1310"
     inkscape:window-height="712"
     inkscape:window-x="16"
     inkscape:window-y="36"
     inkscape:window-maximized="0"
     inkscape:pagecheckerboard="true">
    <inkscape:grid
       type="xygrid"
       id="grid833" />
  </sodipodi:namedview>
  <metadata
     id="metadata5">
    <rdf:RDF>
      <cc:Work
         rdf:about="">
        <dc:format>image/svg+xml</dc:format>
        <dc:type
           rdf:resource="http://purl.org/dc/dcmitype/StillImage" />
        <dc:title></dc:title>
      </cc:Work>
    </rdf:RDF>
  </metadata>
  <g
     inkscape:label="Layer 1"
     inkscape:groupmode="layer"
     id="layer1">
    <path
       id="rect840"
       style="opacity:1;fill:#ffffff;stroke:#ffffff;stroke-width:0.530462;stroke-linejoin:round;fill-opacity:1;stroke-opacity:1"
       d="m 10.312368,7.5412728 c -1.5351872,0 -2.7710952,1.1741126 -2.7710952,2.6325392 V 20.70397 c 0,1.458427 1.235908,2.63254 2.7710952,2.63254 h 19.397658 c 1.535186,0 2.771094,-1.174113 2.771094,-2.63254 V 10.173812 c 0,-1.4584266 -1.235908,-2.6325392 -2.771094,-2.6325392 z m 27.71094,0 c -1.535186,0 -2.771094,1.1741126 -2.771094,2.6325392 V 20.70397 c 0,1.458427 1.235908,2.63254 2.771094,2.63254 h 19.397658 c 1.535187,0 2.771095,-1.174113 2.771095,-2.63254 V 10.173812 c 0,-1.4584266 -1.235908,-2.6325392 -2.771095,-2.6325392 z M 10.312368,25.969049 c -1.5351872,0 -2.7710952,1.174113 -2.7710952,2.632539 v 10.530158 c 0,1.458427 1.235908,2.632539 2.7710952,2.632539 h 19.397658 c 1.535186,0 2.771094,-1.174112 2.771094,-2.632539 V 28.601588 c 0,-1.458426 -1.235908,-2.632539 -2.771094,-2.632539 z m 27.71094,0 c -1.535186,0 -2.771094,1.174113 -2.771094,2.632539 v 10.530158 c 0,1.458427 1.235908,2.632539 2.771094,2.632539 h 19.397658 c 1.535187,0 2.771095,-1.174112 2.771095,-2.632539 V 28.601588 c 0,-1.458426 -1.235908,-2.632539 -2.771095,-2.632539 z m -27.71094,18.427776 c -1.5351872,0 -2.7710952,1.174112 -2.7710952,2.63254 v 10.530157 c 0,1.458426 1.235908,2.632539 2.7710952,2.632539 h 19.397658 c 1.535186,0 2.771094,-1.174113 2.771094,-2.632539 V 47.029365 c 0,-1.458428 -1.235908,-2.63254 -2.771094,-2.63254 z m 27.71094,0 c -1.535186,0 -2.771094,1.174112 -2.771094,2.63254 v 10.530157 c 0,1.458426 1.235908,2.632539 2.771094,2.632539 h 19.397658 c 1.535187,0 2.771095,-1.174113 2.771095,-2.632539 V 47.029365 c 0,-1.458428 -1.235908,-2.63254 -2.771095,-2.63254 z" />
  </g>
</svg>
