<?xml version="1.0" encoding="UTF-8" standalone="no"?>
<svg
   xmlns:dc="http://purl.org/dc/elements/1.1/"
   xmlns:cc="http://creativecommons.org/ns#"
   xmlns:rdf="http://www.w3.org/1999/02/22-rdf-syntax-ns#"
   xmlns:svg="http://www.w3.org/2000/svg"
   xmlns="http://www.w3.org/2000/svg"
   xmlns:sodipodi="http://sodipodi.sourceforge.net/DTD/sodipodi-0.dtd"
   xmlns:inkscape="http://www.inkscape.org/namespaces/inkscape"
   width="256"
   height="256"
   viewBox="0 0 67.733332 67.733335"
   version="1.1"
   id="svg8"
   inkscape:version="1.0.2 (e86c870879, 2021-01-15)"
   sodipodi:docname="spiral.svg">
  <defs
     id="defs2" />
  <sodipodi:namedview
     id="base"
     pagecolor="#ffffff"
     bordercolor="#666666"
     borderopacity="1.0"
     inkscape:pageopacity="0.0"
     inkscape:pageshadow="2"
     inkscape:zoom="1.3562087"
     inkscape:cx="91.178017"
     inkscape:cy="114.28624"
     inkscape:document-units="mm"
     inkscape:current-layer="layer1"
     inkscape:document-rotation="0"
     showgrid="true"
     units="px"
     inkscape:window-width="1307"
     inkscape:window-height="709"
     inkscape:window-x="16"
     inkscape:window-y="39"
     inkscape:window-maximized="0"
     inkscape:pagecheckerboard="true">
    <inkscape:grid
       type="xygrid"
       id="grid833" />
  </sodipodi:namedview>
  <metadata
     id="metadata5">
    <rdf:RDF>
      <cc:Work
         rdf:about="">
        <dc:format>image/svg+xml</dc:format>
        <dc:type
           rdf:resource="http://purl.org/dc/dcmitype/StillImage" />
        <dc:title></dc:title>
      </cc:Work>
    </rdf:RDF>
  </metadata>
  <g
     inkscape:label="Layer 1"
     inkscape:groupmode="layer"
     id="layer1">
    <path
       id="rect1047"
       style="opacity:1;fill:	#CFD5AE;fill-opacity:1;stroke:	#CFD5AE;stroke-width:0.544102;stroke-linejoin:round;stroke-opacity:0.98431373"
       d="m 10.318468,7.5480925 c -1.5347875,0 -2.7703754,1.2355879 -2.7703754,2.7703765 v 47.096397 c 0,1.534786 1.2355879,2.770375 2.7703754,2.770375 h 19.392634 c 1.534789,0 2.770377,-1.235589 2.770377,-2.770375 V 10.318469 c 0,-1.5347886 -1.235588,-2.7703765 -2.770377,-2.7703765 z m 27.703763,0 c -1.534788,0 -2.770377,1.2355879 -2.770377,2.7703765 v 27.703763 c 0,1.534788 1.235589,2.770375 2.770377,2.770375 h 19.392634 c 1.534787,0 2.770376,-1.235587 2.770376,-2.770375 V 10.318469 c 0,-1.5347886 -1.235589,-2.7703765 -2.770376,-2.7703765 z M 36.637044,43.562984 c -0.767395,0 -1.38519,0.617792 -1.38519,1.385188 0,0.767394 0.617795,1.385189 1.38519,1.385189 h 5.540751 c 0.767395,0 1.385189,-0.617795 1.385189,-1.385189 0,-0.767396 -0.617794,-1.385188 -1.385189,-1.385188 z m 12.466691,0 c -1.534788,0 -2.770376,1.235588 -2.770376,2.770377 v 11.081505 c 0,1.534786 1.235588,2.770375 2.770376,2.770375 h 8.31113 c 1.534787,0 2.770376,-1.235589 2.770376,-2.770375 V 46.333361 c 0,-1.534789 -1.235589,-2.770377 -2.770376,-2.770377 z m -11.081504,5.540752 c -1.534788,0 -2.770377,1.235588 -2.770377,2.770377 v 5.540753 c 0,1.534786 1.235589,2.770375 2.770377,2.770375 h 2.770376 c 1.534788,0 2.770377,-1.235589 2.770377,-2.770375 v -5.540753 c 0,-1.534789 -1.235589,-2.770377 -2.770377,-2.770377 z" />
  </g>
</svg>
