<?xml version="1.0" encoding="UTF-8" standalone="no"?>
<svg
   xmlns:dc="http://purl.org/dc/elements/1.1/"
   xmlns:cc="http://creativecommons.org/ns#"
   xmlns:rdf="http://www.w3.org/1999/02/22-rdf-syntax-ns#"
   xmlns:svg="http://www.w3.org/2000/svg"
   xmlns="http://www.w3.org/2000/svg"
   xmlns:sodipodi="http://sodipodi.sourceforge.net/DTD/sodipodi-0.dtd"
   xmlns:inkscape="http://www.inkscape.org/namespaces/inkscape"
   width="256"
   height="256"
   viewBox="0 0 67.733332 67.733335"
   version="1.1"
   id="svg8"
   inkscape:version="1.0.2 (e86c870879, 2021-01-15)"
   sodipodi:docname="tilebottom.svg">
  <defs
     id="defs2" />
  <sodipodi:namedview
     id="base"
     pagecolor="#ffffff"
     bordercolor="#666666"
     borderopacity="1.0"
     inkscape:pageopacity="0.0"
     inkscape:pageshadow="2"
     inkscape:zoom="1.3562087"
     inkscape:cx="91.178017"
     inkscape:cy="114.28624"
     inkscape:document-units="mm"
     inkscape:current-layer="layer1"
     inkscape:document-rotation="0"
     showgrid="false"
     units="px"
     inkscape:window-width="1310"
     inkscape:window-height="712"
     inkscape:window-x="16"
     inkscape:window-y="36"
     inkscape:window-maximized="0"
     inkscape:pagecheckerboard="true">
    <inkscape:grid
       type="xygrid"
       id="grid833" />
  </sodipodi:namedview>
  <metadata
     id="metadata5">
    <rdf:RDF>
      <cc:Work
         rdf:about="">
        <dc:format>image/svg+xml</dc:format>
        <dc:type
           rdf:resource="http://purl.org/dc/dcmitype/StillImage" />
        <dc:title></dc:title>
      </cc:Work>
    </rdf:RDF>
  </metadata>
  <g
     inkscape:label="Layer 1"
     inkscape:groupmode="layer"
     id="layer1">
    <path
       id="rect835"
       style="opacity:1;fill:	#CFD5AE;fill-opacity:1;stroke:	#CFD5AE;stroke-width:0.519642;stroke-linejoin:round;stroke-opacity:0.984314"
       d="m 7.4083336,10.054167 c 0,-1.4657914 1.1800417,-2.6458334 2.6458334,-2.6458334 h 47.625 c 1.465791,0 2.645833,1.180042 2.645833,2.6458334 V 20.6375 c 0,1.465792 -1.180042,2.645833 -2.645833,2.645833 h -47.625 c -1.4657917,0 -2.6458334,-1.180041 -2.6458334,-2.645833 z m 0,18.520833 c 0,-1.465792 1.1800417,-2.645833 2.6458334,-2.645833 H 20.6375 c 1.465792,0 2.645834,1.180041 2.645834,2.645833 v 10.583333 c 0,1.465792 -1.180042,2.645834 -2.645834,2.645834 H 10.054167 c -1.4657917,0 -2.6458334,-1.180042 -2.6458334,-2.645834 z m 0,18.520833 C 7.4083336,45.630042 8.5883753,44.45 10.054167,44.45 H 20.6375 c 1.465792,0 2.645834,1.180042 2.645834,2.645833 v 10.583333 c 0,1.465792 -1.180042,2.645834 -2.645834,2.645834 H 10.054167 c -1.4657917,0 -2.6458334,-1.180042 -2.6458334,-2.645834 z M 25.929167,28.575 c 0,-1.465792 1.180042,-2.645833 2.645833,-2.645833 h 10.583334 c 1.465791,0 2.645833,1.180041 2.645833,2.645833 v 10.583333 c 0,1.465792 -1.180042,2.645834 -2.645833,2.645834 H 28.575 c -1.465791,0 -2.645833,-1.180042 -2.645833,-2.645834 z m 0,18.520833 C 25.929167,45.630042 27.109209,44.45 28.575,44.45 h 10.583334 c 1.465791,0 2.645833,1.180042 2.645833,2.645833 v 10.583333 c 0,1.465792 -1.180042,2.645834 -2.645833,2.645834 H 28.575 c -1.465791,0 -2.645833,-1.180042 -2.645833,-2.645834 z M 44.45,28.575 c 0,-1.465792 1.180042,-2.645833 2.645833,-2.645833 h 10.583334 c 1.465791,0 2.645833,1.180041 2.645833,2.645833 v 10.583333 c 0,1.465792 -1.180042,2.645834 -2.645833,2.645834 H 47.095833 c -1.465791,0 -2.645833,-1.180042 -2.645833,-2.645834 z m 0,18.520833 C 44.45,45.630042 45.630042,44.45 47.095833,44.45 h 10.583334 c 1.465791,0 2.645833,1.180042 2.645833,2.645833 v 10.583333 c 0,1.465792 -1.180042,2.645834 -2.645833,2.645834 H 47.095833 C 45.630042,60.325 44.45,59.144958 44.45,57.679166 Z" />
  </g>
</svg>
